<svg xmlns="http://www.w3.org/2000/svg" width="544.2" height="544.2" viewBox="0 0 544.2 544.2"><path d="M272.2 0C2.2 0 .1 121.8.1 272.1s2.1 272.1 272.1 272.1 272.1-121.8 272.1-272.1S542.2 0 272.2 0z" fill="#2c9644"/><path d="M349.9 316.9l-40.5-49c-1.3-1.6-3.4-2.7-5.7-2.7s-4.4 1.1-5.7 2.7l-5.4 6.6c-.2.3-.5.6-.7.9-1.3 1.3-3.2 2.2-5.2 2.2-1.9 0-3.6-.8-5-1.9-.5-.4-.9-.9-1.1-1.3l-19.9-24.1c-1.8-2.2-4.5-3.5-7.4-3.5-3.1 0-5.7 1.3-7.4 3.5l-53 64.2-.9 1.1c-.7 1.1-1.1 2.3-1.1 3.5 0 3.5 2.9 6.5 6.5 6.5h149.2c2.7 0 5-2.2 5-5 0-1.1-.3-2-.9-2.8l-.8-.9zM328.5 249.7c8.9 0 16.1-7.3 16.1-16.1 0-8.9-7.3-16.1-16.1-16.1s-16.1 7.3-16.1 16.1c-.1 8.9 7.2 16.1 16.1 16.1z" fill="none"/><path d="M394.1 217.1c-21 0-38.1-17.1-38.1-38.1v-16.2H188.5V179c0 21-17.1 38.1-38.1 38.1h-16.2v110h16.2c21 0 38.1 17.1 38.1 38.1v16.2H356v-16.2c0-21 17.1-38.1 38.1-38.1h16.2v-110h-16.2zm-65.6.3c8.9 0 16.1 7.3 16.1 16.1 0 8.9-7.3 16.1-16.1 16.1s-16.1-7.3-16.1-16.1c-.1-8.8 7.2-16.1 16.1-16.1zm18.2 108.1H197.4c-3.6 0-6.5-3-6.5-6.5 0-1.2.4-2.5 1.1-3.5l.9-1.1 53-64.2c1.7-2.2 4.4-3.5 7.4-3.5s5.6 1.3 7.4 3.5l19.9 24.1c.3.5.7 1 1.1 1.3 1.3 1.1 3.1 1.9 5 1.9 2 0 3.8-.9 5.2-2.2.2-.3.5-.6.7-.9l5.4-6.6c1.3-1.6 3.4-2.7 5.7-2.7s4.4 1.1 5.7 2.7l40.5 49 .9.9c.6.8.9 1.7.9 2.8-.1 2.8-2.3 5-5 5zM163.5 179v-32.4c0-7.2-5.9-13.1-13.1-13.1H118c-7.2 0-13.1 5.9-13.1 13.1V179c0 7.2 5.9 13.1 13.1 13.1h32.4c7.2 0 13.1-5.9 13.1-13.1zM394.1 192.1h32.4c7.2 0 13.1-5.9 13.1-13.1v-32.3c0-7.2-5.9-13.1-13.1-13.1h-32.3c-7.2 0-13.1 5.9-13.1 13.1V179c-.2 7.2 5.7 13.1 13 13.1zM150.4 352.1H118c-7.2 0-13.1 5.9-13.1 13.1v32.3c0 7.2 5.9 13.1 13.1 13.1h32.3c7.2 0 13.1-5.9 13.1-13.1v-32.4c.1-7.1-5.8-13-13-13zM380.9 365.2v32.4c0 7.2 5.9 13.1 13.1 13.1h32.3c7.2 0 13.1-5.9 13.1-13.1v-32.3c0-7.2-5.9-13.1-13.1-13.1h-32.4c-7.1-.1-13 5.8-13 13z" fill="#fff"/></svg>