<svg xmlns="http://www.w3.org/2000/svg" viewBox="1327.7 328.2 595.1 595.1">
  <linearGradient id="a" x1="3.378" x2="1.956" y1=".36" y2="2.297" gradientUnits="userSpaceOnUse" gradientTransform="translate(-47.674 -43.947) scale(594.1396)">
    <stop offset="0" stop-color="#007355"/>
    <stop offset="1" stop-color="#88DD21"/>
  </linearGradient>
  <circle cx="1624.8" cy="625.7" r="297.1" fill="url(#a)" stroke="#979797"/>
  <path fill="#FFF" d="M1705.4 672.3L1663 621c-1.4-1.7-3.6-2.8-6-2.8s-4.6 1.1-6 2.8l-5.7 6.9c-.2.3-.5.6-.7.9-1.4 1.4-3.3 2.3-5.4 2.3-2 0-3.8-.8-5.2-2-.5-.4-.9-.9-1.2-1.4l-20.8-25.2c-1.9-2.3-4.7-3.7-7.8-3.7-3.2 0-6 1.4-7.8 3.7l-55.5 67.2-.9 1.1c-.7 1.1-1.1 2.4-1.1 3.7 0 3.7 3 6.8 6.8 6.8H1702c2.8 0 5.2-2.3 5.2-5.2 0-1.1-.3-2.1-.9-2.9l-.9-.9zm-12-104.2c-9.3 0-16.9 7.6-16.9 16.9s7.6 16.9 16.9 16.9c9.3 0 16.9-7.6 16.9-16.9s-7.6-16.9-16.9-16.9zm40.2 4.7h22.5v105.8h-22.5zm-177.2-28.9h137.7v-24.3h-137.7v19.9m137.7 169h-137.7v22.2h137.7V712m-200.2-139.2h22.5v105.8h-22.5zM1535 494c-1.7 0-3.3.6-4.6 1.9l-12.6 12.6c-1.3 1.3-2.9 1.9-4.6 1.9-1.7 0-3.3-.6-4.6-1.9l-22.7-22.7-2.6-2.7c-2.7-2.7-6.2-4.2-9.5-4.2-2.8 0-5.6 1.1-8 3.4-5.1 5.1-4.2 12.4.9 17.5l2.7 2.7 22.7 22.7c2.5 2.5 2.5 6.6 0 9.1l-12.5 12.5c-2.5 2.5-2.5 6.6 0 9.1 1.3 1.3 2.9 1.9 4.6 1.9h48.2c2.3-.1 4.6-1.1 6.3-2.8 1.7-1.7 2.7-4 2.8-6.3v-49c-.1-1.4-.8-2.8-1.9-3.9-1.3-1.2-3-1.8-4.6-1.8zm241.8-15.2c-3.4 0-6.8 1.5-9.5 4.2l-2.6 2.7-22.7 22.7c-1.3 1.3-2.9 1.9-4.6 1.9-1.7 0-3.3-.6-4.6-1.9l-12.5-12.5c-1.3-1.3-2.9-1.9-4.6-1.9-1.7 0-3.3.6-4.6 1.9-1.3 1.3-1.9 2.9-1.9 4.6v48.2c.1 2.3 1.1 4.6 2.8 6.3 1.7 1.8 4 2.7 6.3 2.8h49c1.4-.1 2.8-.8 3.9-1.9 2.5-2.5 2.5-6.6 0-9.2l-12.6-12.6c-2.5-2.5-2.5-6.6 0-9.1l22.7-22.7 2.7-2.7c5.1-5.1 5.9-12.4.9-17.5-2.5-2.2-5.3-3.3-8.1-3.3zm4.4 270.3l-22.7-22.7c-2.5-2.5-2.5-6.6 0-9.2l12.5-12.5c2.5-2.5 2.5-6.6 0-9.2-1.3-1.3-2.9-1.9-4.6-1.9h-48.2c-2.3.1-4.6 1-6.3 2.8-1.7 1.8-2.7 4-2.8 6.3v48.9c.2 1.4.8 2.8 1.9 3.9 1.3 1.3 2.9 1.9 4.6 1.9s3.3-.6 4.6-1.9l12.6-12.6c1.3-1.3 2.9-1.9 4.6-1.9 1.7 0 3.3.6 4.6 1.9l22.7 22.7 2.7 2.7c2.7 2.7 6.1 4.2 9.5 4.2 2.8 0 5.6-1.1 8-3.4 5.1-5.1 4.2-12.4-.9-17.5l-2.8-2.5zm-248.9-55.5h-49c-1.4.1-2.8.7-3.9 1.9-2.5 2.5-2.5 6.6 0 9.1l12.6 12.6c2.5 2.5 2.5 6.6 0 9.2l-22.7 22.7-2.7 2.7c-5.1 5.1-5.9 12.4-.9 17.5 2.3 2.3 5.1 3.4 8 3.4 3.4 0 6.8-1.5 9.5-4.2l2.6-2.7 22.7-22.7c1.3-1.3 2.9-1.9 4.6-1.9 1.7 0 3.3.6 4.6 1.9l12.5 12.5c1.3 1.3 2.9 1.9 4.6 1.9 1.7 0 3.3-.6 4.6-1.9 1.3-1.3 1.9-2.9 1.9-4.6v-48.2c-.1-2.3-1.1-4.6-2.8-6.3-1.7-1.8-3.9-2.7-6.2-2.9z"/>
</svg>